<mxfile host="app.diagrams.net" agent="Mozilla/5.0 (Windows NT 10.0; Win64; x64) AppleWebKit/537.36 (KHTML, like Gecko) Chrome/131.0.0.0 Safari/537.36" version="26.0.9">
  <diagram name="Pagina-1" id="r3Zdwkks7S9XhZAWuCTh">
    <mxGraphModel dx="1167" dy="580" grid="1" gridSize="10" guides="1" tooltips="1" connect="1" arrows="1" fold="1" page="1" pageScale="1" pageWidth="827" pageHeight="1169" math="0" shadow="0">
      <root>
        <mxCell id="0" />
        <mxCell id="1" parent="0" />
        <mxCell id="6O_bnOVgtkq32zisd5zL-3" value="" style="edgeStyle=orthogonalEdgeStyle;rounded=0;orthogonalLoop=1;jettySize=auto;html=1;" edge="1" parent="1" source="6O_bnOVgtkq32zisd5zL-1" target="6O_bnOVgtkq32zisd5zL-2">
          <mxGeometry relative="1" as="geometry" />
        </mxCell>
        <mxCell id="6O_bnOVgtkq32zisd5zL-1" value="START" style="ellipse;whiteSpace=wrap;html=1;" vertex="1" parent="1">
          <mxGeometry x="340" y="20" width="120" height="80" as="geometry" />
        </mxCell>
        <mxCell id="6O_bnOVgtkq32zisd5zL-5" value="" style="edgeStyle=orthogonalEdgeStyle;rounded=0;orthogonalLoop=1;jettySize=auto;html=1;" edge="1" parent="1" source="6O_bnOVgtkq32zisd5zL-2" target="6O_bnOVgtkq32zisd5zL-4">
          <mxGeometry relative="1" as="geometry" />
        </mxCell>
        <mxCell id="6O_bnOVgtkq32zisd5zL-2" value="READ N" style="shape=parallelogram;perimeter=parallelogramPerimeter;whiteSpace=wrap;html=1;fixedSize=1;" vertex="1" parent="1">
          <mxGeometry x="340" y="190" width="120" height="60" as="geometry" />
        </mxCell>
        <mxCell id="6O_bnOVgtkq32zisd5zL-7" value="" style="edgeStyle=orthogonalEdgeStyle;rounded=0;orthogonalLoop=1;jettySize=auto;html=1;" edge="1" parent="1" source="6O_bnOVgtkq32zisd5zL-4" target="6O_bnOVgtkq32zisd5zL-6">
          <mxGeometry relative="1" as="geometry" />
        </mxCell>
        <mxCell id="6O_bnOVgtkq32zisd5zL-8" value="FALSE" style="edgeLabel;html=1;align=center;verticalAlign=middle;resizable=0;points=[];" vertex="1" connectable="0" parent="6O_bnOVgtkq32zisd5zL-7">
          <mxGeometry x="-0.2367" y="2" relative="1" as="geometry">
            <mxPoint as="offset" />
          </mxGeometry>
        </mxCell>
        <mxCell id="6O_bnOVgtkq32zisd5zL-10" value="" style="edgeStyle=orthogonalEdgeStyle;rounded=0;orthogonalLoop=1;jettySize=auto;html=1;" edge="1" parent="1" source="6O_bnOVgtkq32zisd5zL-4" target="6O_bnOVgtkq32zisd5zL-9">
          <mxGeometry relative="1" as="geometry" />
        </mxCell>
        <mxCell id="6O_bnOVgtkq32zisd5zL-13" value="TRUE" style="edgeLabel;html=1;align=center;verticalAlign=middle;resizable=0;points=[];" vertex="1" connectable="0" parent="6O_bnOVgtkq32zisd5zL-10">
          <mxGeometry x="-0.32" y="-2" relative="1" as="geometry">
            <mxPoint as="offset" />
          </mxGeometry>
        </mxCell>
        <mxCell id="6O_bnOVgtkq32zisd5zL-4" value="N % 1 == 0" style="rhombus;whiteSpace=wrap;html=1;" vertex="1" parent="1">
          <mxGeometry x="360" y="320" width="80" height="80" as="geometry" />
        </mxCell>
        <mxCell id="6O_bnOVgtkq32zisd5zL-6" value="WRITE &quot;ERRORE&quot;" style="shape=parallelogram;perimeter=parallelogramPerimeter;whiteSpace=wrap;html=1;fixedSize=1;" vertex="1" parent="1">
          <mxGeometry x="550" y="330" width="150" height="60" as="geometry" />
        </mxCell>
        <mxCell id="6O_bnOVgtkq32zisd5zL-12" value="" style="edgeStyle=orthogonalEdgeStyle;rounded=0;orthogonalLoop=1;jettySize=auto;html=1;" edge="1" parent="1" source="6O_bnOVgtkq32zisd5zL-9" target="6O_bnOVgtkq32zisd5zL-11">
          <mxGeometry relative="1" as="geometry" />
        </mxCell>
        <mxCell id="6O_bnOVgtkq32zisd5zL-25" value="TRUE" style="edgeLabel;html=1;align=center;verticalAlign=middle;resizable=0;points=[];" vertex="1" connectable="0" parent="6O_bnOVgtkq32zisd5zL-12">
          <mxGeometry x="-0.256" y="4" relative="1" as="geometry">
            <mxPoint as="offset" />
          </mxGeometry>
        </mxCell>
        <mxCell id="6O_bnOVgtkq32zisd5zL-23" value="" style="edgeStyle=orthogonalEdgeStyle;rounded=0;orthogonalLoop=1;jettySize=auto;html=1;" edge="1" parent="1" source="6O_bnOVgtkq32zisd5zL-9" target="6O_bnOVgtkq32zisd5zL-22">
          <mxGeometry relative="1" as="geometry" />
        </mxCell>
        <mxCell id="6O_bnOVgtkq32zisd5zL-24" value="FALSE" style="edgeLabel;html=1;align=center;verticalAlign=middle;resizable=0;points=[];" vertex="1" connectable="0" parent="6O_bnOVgtkq32zisd5zL-23">
          <mxGeometry x="-0.37" y="-4" relative="1" as="geometry">
            <mxPoint as="offset" />
          </mxGeometry>
        </mxCell>
        <mxCell id="6O_bnOVgtkq32zisd5zL-9" value="N &amp;gt;1 AND N &amp;lt; 100" style="rhombus;whiteSpace=wrap;html=1;" vertex="1" parent="1">
          <mxGeometry x="320" y="480" width="160" height="80" as="geometry" />
        </mxCell>
        <mxCell id="6O_bnOVgtkq32zisd5zL-15" value="" style="edgeStyle=orthogonalEdgeStyle;rounded=0;orthogonalLoop=1;jettySize=auto;html=1;" edge="1" parent="1" source="6O_bnOVgtkq32zisd5zL-11" target="6O_bnOVgtkq32zisd5zL-14">
          <mxGeometry relative="1" as="geometry" />
        </mxCell>
        <mxCell id="6O_bnOVgtkq32zisd5zL-11" value="I = 1" style="whiteSpace=wrap;html=1;" vertex="1" parent="1">
          <mxGeometry x="580" y="490" width="120" height="60" as="geometry" />
        </mxCell>
        <mxCell id="6O_bnOVgtkq32zisd5zL-17" value="" style="edgeStyle=orthogonalEdgeStyle;rounded=0;orthogonalLoop=1;jettySize=auto;html=1;" edge="1" parent="1" source="6O_bnOVgtkq32zisd5zL-14" target="6O_bnOVgtkq32zisd5zL-16">
          <mxGeometry relative="1" as="geometry" />
        </mxCell>
        <mxCell id="6O_bnOVgtkq32zisd5zL-14" value="SOMMA += I" style="whiteSpace=wrap;html=1;" vertex="1" parent="1">
          <mxGeometry x="780" y="490" width="120" height="60" as="geometry" />
        </mxCell>
        <mxCell id="6O_bnOVgtkq32zisd5zL-19" value="" style="edgeStyle=orthogonalEdgeStyle;rounded=0;orthogonalLoop=1;jettySize=auto;html=1;" edge="1" parent="1" source="6O_bnOVgtkq32zisd5zL-16" target="6O_bnOVgtkq32zisd5zL-18">
          <mxGeometry relative="1" as="geometry" />
        </mxCell>
        <mxCell id="6O_bnOVgtkq32zisd5zL-16" value="I += 1" style="whiteSpace=wrap;html=1;" vertex="1" parent="1">
          <mxGeometry x="980" y="490" width="120" height="60" as="geometry" />
        </mxCell>
        <mxCell id="6O_bnOVgtkq32zisd5zL-20" style="edgeStyle=orthogonalEdgeStyle;rounded=0;orthogonalLoop=1;jettySize=auto;html=1;exitX=0.5;exitY=0;exitDx=0;exitDy=0;entryX=0.5;entryY=0;entryDx=0;entryDy=0;" edge="1" parent="1" source="6O_bnOVgtkq32zisd5zL-18" target="6O_bnOVgtkq32zisd5zL-14">
          <mxGeometry relative="1" as="geometry">
            <Array as="points">
              <mxPoint x="1240" y="430" />
              <mxPoint x="840" y="430" />
            </Array>
          </mxGeometry>
        </mxCell>
        <mxCell id="6O_bnOVgtkq32zisd5zL-21" value="FALSE" style="edgeLabel;html=1;align=center;verticalAlign=middle;resizable=0;points=[];" vertex="1" connectable="0" parent="6O_bnOVgtkq32zisd5zL-20">
          <mxGeometry x="-0.8973" relative="1" as="geometry">
            <mxPoint as="offset" />
          </mxGeometry>
        </mxCell>
        <mxCell id="6O_bnOVgtkq32zisd5zL-45" value="" style="edgeStyle=orthogonalEdgeStyle;rounded=0;orthogonalLoop=1;jettySize=auto;html=1;" edge="1" parent="1" source="6O_bnOVgtkq32zisd5zL-18" target="6O_bnOVgtkq32zisd5zL-44">
          <mxGeometry relative="1" as="geometry" />
        </mxCell>
        <mxCell id="6O_bnOVgtkq32zisd5zL-18" value="I == N+1" style="rhombus;whiteSpace=wrap;html=1;" vertex="1" parent="1">
          <mxGeometry x="1200" y="480" width="80" height="80" as="geometry" />
        </mxCell>
        <mxCell id="6O_bnOVgtkq32zisd5zL-27" value="" style="edgeStyle=orthogonalEdgeStyle;rounded=0;orthogonalLoop=1;jettySize=auto;html=1;" edge="1" parent="1" source="6O_bnOVgtkq32zisd5zL-22" target="6O_bnOVgtkq32zisd5zL-26">
          <mxGeometry relative="1" as="geometry" />
        </mxCell>
        <mxCell id="6O_bnOVgtkq32zisd5zL-28" value="TRUE" style="edgeLabel;html=1;align=center;verticalAlign=middle;resizable=0;points=[];" vertex="1" connectable="0" parent="6O_bnOVgtkq32zisd5zL-27">
          <mxGeometry x="-0.28" y="-2" relative="1" as="geometry">
            <mxPoint as="offset" />
          </mxGeometry>
        </mxCell>
        <mxCell id="6O_bnOVgtkq32zisd5zL-38" style="edgeStyle=orthogonalEdgeStyle;rounded=0;orthogonalLoop=1;jettySize=auto;html=1;exitX=0.5;exitY=1;exitDx=0;exitDy=0;entryX=0.5;entryY=0;entryDx=0;entryDy=0;" edge="1" parent="1" source="6O_bnOVgtkq32zisd5zL-22" target="6O_bnOVgtkq32zisd5zL-30">
          <mxGeometry relative="1" as="geometry" />
        </mxCell>
        <mxCell id="6O_bnOVgtkq32zisd5zL-39" value="FALSE" style="edgeLabel;html=1;align=center;verticalAlign=middle;resizable=0;points=[];" vertex="1" connectable="0" parent="6O_bnOVgtkq32zisd5zL-38">
          <mxGeometry x="-0.4489" y="-1" relative="1" as="geometry">
            <mxPoint as="offset" />
          </mxGeometry>
        </mxCell>
        <mxCell id="6O_bnOVgtkq32zisd5zL-22" value="N &amp;lt;= 0" style="rhombus;whiteSpace=wrap;html=1;" vertex="1" parent="1">
          <mxGeometry x="360" y="640" width="80" height="80" as="geometry" />
        </mxCell>
        <mxCell id="6O_bnOVgtkq32zisd5zL-47" style="edgeStyle=orthogonalEdgeStyle;rounded=0;orthogonalLoop=1;jettySize=auto;html=1;exitX=1;exitY=0.5;exitDx=0;exitDy=0;entryX=0;entryY=0.5;entryDx=0;entryDy=0;" edge="1" parent="1" source="6O_bnOVgtkq32zisd5zL-26" target="6O_bnOVgtkq32zisd5zL-46">
          <mxGeometry relative="1" as="geometry" />
        </mxCell>
        <mxCell id="6O_bnOVgtkq32zisd5zL-26" value="WRITE &quot;ERRORE&quot;" style="shape=parallelogram;perimeter=parallelogramPerimeter;whiteSpace=wrap;html=1;fixedSize=1;" vertex="1" parent="1">
          <mxGeometry x="500" y="650" width="160" height="60" as="geometry" />
        </mxCell>
        <mxCell id="6O_bnOVgtkq32zisd5zL-29" value="" style="edgeStyle=orthogonalEdgeStyle;rounded=0;orthogonalLoop=1;jettySize=auto;html=1;" edge="1" parent="1" source="6O_bnOVgtkq32zisd5zL-30" target="6O_bnOVgtkq32zisd5zL-32">
          <mxGeometry relative="1" as="geometry" />
        </mxCell>
        <mxCell id="6O_bnOVgtkq32zisd5zL-30" value="I = 1" style="whiteSpace=wrap;html=1;" vertex="1" parent="1">
          <mxGeometry x="340" y="820" width="120" height="60" as="geometry" />
        </mxCell>
        <mxCell id="6O_bnOVgtkq32zisd5zL-31" value="" style="edgeStyle=orthogonalEdgeStyle;rounded=0;orthogonalLoop=1;jettySize=auto;html=1;" edge="1" parent="1" source="6O_bnOVgtkq32zisd5zL-32" target="6O_bnOVgtkq32zisd5zL-34">
          <mxGeometry relative="1" as="geometry" />
        </mxCell>
        <mxCell id="6O_bnOVgtkq32zisd5zL-32" value="SOMMA += I" style="whiteSpace=wrap;html=1;" vertex="1" parent="1">
          <mxGeometry x="550" y="820" width="120" height="60" as="geometry" />
        </mxCell>
        <mxCell id="6O_bnOVgtkq32zisd5zL-33" value="" style="edgeStyle=orthogonalEdgeStyle;rounded=0;orthogonalLoop=1;jettySize=auto;html=1;" edge="1" parent="1" source="6O_bnOVgtkq32zisd5zL-34" target="6O_bnOVgtkq32zisd5zL-37">
          <mxGeometry relative="1" as="geometry" />
        </mxCell>
        <mxCell id="6O_bnOVgtkq32zisd5zL-34" value="I += 2" style="whiteSpace=wrap;html=1;" vertex="1" parent="1">
          <mxGeometry x="750" y="820" width="120" height="60" as="geometry" />
        </mxCell>
        <mxCell id="6O_bnOVgtkq32zisd5zL-35" style="edgeStyle=orthogonalEdgeStyle;rounded=0;orthogonalLoop=1;jettySize=auto;html=1;exitX=0.5;exitY=0;exitDx=0;exitDy=0;entryX=0.5;entryY=0;entryDx=0;entryDy=0;" edge="1" parent="1" source="6O_bnOVgtkq32zisd5zL-37" target="6O_bnOVgtkq32zisd5zL-32">
          <mxGeometry relative="1" as="geometry">
            <Array as="points">
              <mxPoint x="1010" y="760" />
              <mxPoint x="610" y="760" />
            </Array>
          </mxGeometry>
        </mxCell>
        <mxCell id="6O_bnOVgtkq32zisd5zL-36" value="FALSE" style="edgeLabel;html=1;align=center;verticalAlign=middle;resizable=0;points=[];" vertex="1" connectable="0" parent="6O_bnOVgtkq32zisd5zL-35">
          <mxGeometry x="-0.8973" relative="1" as="geometry">
            <mxPoint as="offset" />
          </mxGeometry>
        </mxCell>
        <mxCell id="6O_bnOVgtkq32zisd5zL-43" value="" style="edgeStyle=orthogonalEdgeStyle;rounded=0;orthogonalLoop=1;jettySize=auto;html=1;" edge="1" parent="1" source="6O_bnOVgtkq32zisd5zL-37" target="6O_bnOVgtkq32zisd5zL-42">
          <mxGeometry relative="1" as="geometry" />
        </mxCell>
        <mxCell id="6O_bnOVgtkq32zisd5zL-37" value="I &amp;gt; N" style="rhombus;whiteSpace=wrap;html=1;" vertex="1" parent="1">
          <mxGeometry x="970" y="810" width="80" height="80" as="geometry" />
        </mxCell>
        <mxCell id="6O_bnOVgtkq32zisd5zL-48" style="edgeStyle=orthogonalEdgeStyle;rounded=0;orthogonalLoop=1;jettySize=auto;html=1;exitX=1;exitY=0.5;exitDx=0;exitDy=0;entryX=0.5;entryY=1;entryDx=0;entryDy=0;" edge="1" parent="1" source="6O_bnOVgtkq32zisd5zL-42" target="6O_bnOVgtkq32zisd5zL-46">
          <mxGeometry relative="1" as="geometry" />
        </mxCell>
        <mxCell id="6O_bnOVgtkq32zisd5zL-42" value="WRITE SOMMA" style="shape=parallelogram;perimeter=parallelogramPerimeter;whiteSpace=wrap;html=1;fixedSize=1;" vertex="1" parent="1">
          <mxGeometry x="1110" y="820" width="120" height="60" as="geometry" />
        </mxCell>
        <mxCell id="6O_bnOVgtkq32zisd5zL-49" style="edgeStyle=orthogonalEdgeStyle;rounded=0;orthogonalLoop=1;jettySize=auto;html=1;exitX=1;exitY=0.5;exitDx=0;exitDy=0;entryX=0.5;entryY=0;entryDx=0;entryDy=0;" edge="1" parent="1" source="6O_bnOVgtkq32zisd5zL-44" target="6O_bnOVgtkq32zisd5zL-46">
          <mxGeometry relative="1" as="geometry" />
        </mxCell>
        <mxCell id="6O_bnOVgtkq32zisd5zL-44" value="WRITE SOMMA" style="shape=parallelogram;perimeter=parallelogramPerimeter;whiteSpace=wrap;html=1;fixedSize=1;" vertex="1" parent="1">
          <mxGeometry x="1340" y="490" width="120" height="60" as="geometry" />
        </mxCell>
        <mxCell id="6O_bnOVgtkq32zisd5zL-51" style="edgeStyle=orthogonalEdgeStyle;rounded=0;orthogonalLoop=1;jettySize=auto;html=1;exitX=1;exitY=0.5;exitDx=0;exitDy=0;entryX=0;entryY=0.5;entryDx=0;entryDy=0;" edge="1" parent="1" source="6O_bnOVgtkq32zisd5zL-46" target="6O_bnOVgtkq32zisd5zL-50">
          <mxGeometry relative="1" as="geometry" />
        </mxCell>
        <mxCell id="6O_bnOVgtkq32zisd5zL-46" value="" style="ellipse;whiteSpace=wrap;html=1;aspect=fixed;" vertex="1" parent="1">
          <mxGeometry x="1430" y="660" width="30" height="30" as="geometry" />
        </mxCell>
        <mxCell id="6O_bnOVgtkq32zisd5zL-50" value="END" style="ellipse;whiteSpace=wrap;html=1;" vertex="1" parent="1">
          <mxGeometry x="1520" y="635" width="120" height="80" as="geometry" />
        </mxCell>
      </root>
    </mxGraphModel>
  </diagram>
</mxfile>
